<svg xmlns="http://www.w3.org/2000/svg" viewBox="0 0 160 160" fill="none">
  <defs>
    <linearGradient id="agents-bg" x1="20" y1="18" x2="140" y2="142" gradientUnits="userSpaceOnUse">
      <stop stop-color="#E8F1FF"/>
      <stop offset="1" stop-color="#BDD8FF"/>
    </linearGradient>
    <linearGradient id="agents-shell" x1="34" y1="32" x2="126" y2="128" gradientUnits="userSpaceOnUse">
      <stop stop-color="#1D4ED8"/>
      <stop offset="1" stop-color="#0F172A"/>
    </linearGradient>
  </defs>
  <rect x="20" y="18" width="120" height="124" rx="30" fill="url(#agents-bg)"/>
  <rect x="20.75" y="18.75" width="118.5" height="122.5" rx="29.25" stroke="#93C5FD" stroke-opacity="0.5" stroke-width="1.5"/>
  <rect x="34" y="32" width="92" height="96" rx="22" fill="url(#agents-shell)"/>
  <rect x="34" y="32" width="92" height="16" rx="22" fill="#3056E3"/>
  <circle cx="46" cy="40" r="2.5" fill="#FB7185"/>
  <circle cx="54" cy="40" r="2.5" fill="#FBBF24"/>
  <circle cx="62" cy="40" r="2.5" fill="#4ADE80"/>
  <circle cx="80" cy="58" r="9" fill="#FFFFFF"/>
  <circle cx="58" cy="96" r="9" fill="#93C5FD"/>
  <circle cx="102" cy="96" r="9" fill="#60A5FA"/>
  <path d="M74 65 64 88" stroke="#FFFFFF" stroke-width="4.5" stroke-linecap="round"/>
  <path d="M86 65 96 88" stroke="#FFFFFF" stroke-width="4.5" stroke-linecap="round"/>
  <path d="M67 96h26" stroke="#E0F2FE" stroke-width="4.5" stroke-linecap="round"/>
  <rect x="48" y="108" width="22" height="7" rx="3.5" fill="#93C5FD" opacity="0.2"/>
  <rect x="90" y="108" width="22" height="7" rx="3.5" fill="#60A5FA" opacity="0.22"/>
</svg>
