<?xml version="1.0" encoding="UTF-8"?>
<svg width="800px" height="800px" viewBox="0 0 24 24" version="1.1" xmlns="http://www.w3.org/2000/svg" xmlns:xlink="http://www.w3.org/1999/xlink">
    <title>AI Digital Twin</title>
    <g stroke="none" stroke-width="1" fill="none" fill-rule="evenodd">
        <rect fill="#4F46E5" x="0" y="0" width="24" height="24" rx="4"></rect>
        <g transform="translate(2.000000, 2.000000)" fill="#FFFFFF">
            <!-- Left figure (human) -->
            <circle cx="5" cy="4.5" r="2.5"></circle>
            <rect x="4" y="7" width="2" height="5" rx="1"></rect>
            <path d="M3,13 L7,13 C7,15.209 6.104,17 5,17 C3.896,17 3,15.209 3,13 Z"></path>
            <path d="M2,12 L8,12" stroke="#FFFFFF" stroke-width="1.5" stroke-linecap="round"></path>
            
            <!-- Right figure (digital twin) -->
            <circle cx="15" cy="4.5" r="2.5"></circle>
            <rect x="14" y="7" width="2" height="5" rx="1"></rect>
            <path d="M13,13 L17,13 C17,15.209 16.104,17 15,17 C13.896,17 13,15.209 13,13 Z"></path>
            <path d="M12,12 L18,12" stroke="#FFFFFF" stroke-width="1.5" stroke-linecap="round" stroke-dasharray="2,1"></path>
            
            <!-- Connection between figures -->
            <path d="M7.5,10 L12.5,10" stroke="#FFFFFF" stroke-width="1.5" stroke-linecap="round" stroke-dasharray="1,1"></path>
            <circle cx="10" cy="10" r="1" fill="#FFFFFF"></circle>
            
            <!-- AI elements -->
            <circle cx="10" cy="17" r="1" fill="#4F46E5" stroke="#FFFFFF" stroke-width="1"></circle>
            <path d="M9,16 L11,16 L10,18 Z" fill="#FFFFFF"></path>
        </g>
    </g>
</svg>
