<svg xmlns="http://www.w3.org/2000/svg" viewBox="0 0 160 160" fill="none">
    <defs>
        <linearGradient id="drive-bg" x1="20" y1="18" x2="140" y2="142"
            gradientUnits="userSpaceOnUse">
            <stop stop-color="#FEF3C7" />
            <stop offset="1" stop-color="#FDE68A" />
        </linearGradient>
        <linearGradient id="drive-shell" x1="34" y1="32" x2="126" y2="128"
            gradientUnits="userSpaceOnUse">
            <stop stop-color="#1B2434" />
            <stop offset="1" stop-color="#101826" />
        </linearGradient>
        <linearGradient id="drive-accent" x1="48" y1="64" x2="112" y2="112"
            gradientUnits="userSpaceOnUse">
            <stop stop-color="#FBBF24" />
            <stop offset="1" stop-color="#F59E0B" />
        </linearGradient>
    </defs>
    <rect x="20" y="18" width="120" height="124" rx="30" fill="url(#drive-bg)" />
    <rect x="20.75" y="18.75" width="118.5" height="122.5" rx="29.25" stroke="#F59E0B"
        stroke-opacity="0.4" stroke-width="1.5" />
    <rect x="34" y="32" width="92" height="96" rx="22" fill="url(#drive-shell)" />
    <rect x="34" y="32" width="92" height="16" rx="22" fill="#263247" />
    <circle cx="46" cy="40" r="2.5" fill="#FB7185" />
    <circle cx="54" cy="40" r="2.5" fill="#FBBF24" />
    <circle cx="62" cy="40" r="2.5" fill="#4ADE80" />
    <path d="M48 72a6 6 0 0 1 6-6h13l6 6h33a6 6 0 0 1 6 6v6H48z" fill="url(#drive-accent)" />
    <rect x="48" y="82" width="64" height="30" rx="6" fill="#FCD34D" />
    <path d="M80 90v12M74 96l6-6 6 6" stroke="#92400E" stroke-width="3.5" stroke-linecap="round"
        stroke-linejoin="round" />
    <rect x="48" y="120" width="64" height="4" rx="2" fill="#475569" />
</svg>